<svg width="256" height="256" viewBox="0 0 256 256" fill="none" xmlns="http://www.w3.org/2000/svg">
<path d="M127.857 192.487C92.2202 192.487 63.2266 163.496 63.2266 127.857C63.2266 92.2202 92.2202 63.2266 127.857 63.2266C163.496 63.2266 192.487 92.2202 192.487 127.857C192.487 163.496 163.496 192.487 127.857 192.487Z" fill="white"/>
<path d="M110.019 50.8907C109.198 50.8907 108.409 50.5338 107.869 49.8903C107.197 49.0923 107.023 47.988 107.417 47.0213L125.255 3.15723C125.684 2.10067 126.713 1.4066 127.857 1.4066C129 1.4066 130.029 2.10067 130.459 3.15723L148.299 47.0213C148.693 47.988 148.516 49.0923 147.844 49.8903C147.175 50.6884 146.113 51.0537 145.096 50.8261C133.73 48.3505 121.975 48.3505 110.614 50.8261C110.418 50.871 110.218 50.8907 110.019 50.8907Z" fill="white"/>
<path d="M127.857 254.307C126.713 254.307 125.684 253.615 125.255 252.556L107.417 208.692C107.023 207.725 107.197 206.621 107.869 205.823C108.541 205.025 109.597 204.665 110.617 204.887C121.978 207.366 133.732 207.366 145.099 204.887C146.119 204.662 147.178 205.028 147.847 205.823C148.519 206.618 148.696 207.725 148.302 208.692L130.461 252.556C130.029 253.615 129 254.307 127.857 254.307Z" fill="white"/>
<path d="M48.0807 148.507C47.7238 148.507 47.3642 148.44 47.0213 148.302L3.15725 130.461C2.10069 130.029 1.40662 129 1.40662 127.857C1.40662 126.713 2.10069 125.684 3.16006 125.255L47.0242 107.417C47.988 107.023 49.0951 107.197 49.8932 107.869C50.6912 108.541 51.0509 109.6 50.8289 110.617C49.5897 116.296 48.9602 122.099 48.9602 127.857C48.9602 133.614 49.5897 139.414 50.8289 145.099C51.0509 146.116 50.6912 147.175 49.8932 147.847C49.3761 148.282 48.7326 148.507 48.0807 148.507Z" fill="white"/>
<path d="M207.633 148.507C206.983 148.507 206.337 148.282 205.823 147.847C205.025 147.178 204.665 146.119 204.887 145.099C206.124 139.417 206.753 133.614 206.753 127.857C206.753 122.099 206.124 116.296 204.887 110.617C204.665 109.6 205.025 108.541 205.823 107.869C206.618 107.197 207.722 107.023 208.692 107.417L252.556 125.255C253.615 125.684 254.307 126.713 254.307 127.857C254.307 129 253.615 130.029 252.556 130.459L208.692 148.299C208.349 148.437 207.989 148.507 207.633 148.507Z" fill="white"/>
<path d="M58.8346 86.8728C58.7559 86.8728 58.6744 86.8699 58.5957 86.8615C57.556 86.7716 56.6512 86.1141 56.2466 85.1558L37.8439 41.525C37.3999 40.4712 37.6387 39.2545 38.4452 38.4452C39.2545 37.6359 40.474 37.4027 41.525 37.8439L85.1558 56.2466C86.1169 56.6512 86.7744 57.556 86.8615 58.5929C86.9514 59.6326 86.4569 60.6358 85.5801 61.1978C80.6823 64.3422 76.1385 67.998 72.0669 72.0669C67.998 76.1386 64.3394 80.6823 61.1978 85.5802C60.6779 86.3894 59.7844 86.8728 58.8346 86.8728Z" fill="white"/>
<path d="M215.281 218.091C214.913 218.091 214.542 218.021 214.188 217.872L170.56 199.469C169.599 199.062 168.942 198.157 168.855 197.12C168.765 196.081 169.259 195.077 170.136 194.513C175.039 191.363 179.586 187.704 183.646 183.644C187.707 179.586 191.365 175.037 194.515 170.133C195.08 169.256 196.069 168.759 197.123 168.852C198.16 168.939 199.065 169.599 199.472 170.557L217.875 214.185C218.316 215.239 218.08 216.459 217.271 217.265C216.731 217.808 216.012 218.091 215.281 218.091Z" fill="white"/>
<path d="M196.879 86.8699C195.926 86.8699 195.035 86.3894 194.513 85.5802C191.363 80.6739 187.704 76.1301 183.644 72.0669C179.577 68.0008 175.031 64.3422 170.133 61.1978C169.254 60.6358 168.762 59.6326 168.852 58.5929C168.939 57.5532 169.599 56.6512 170.557 56.2466L214.185 37.8439C215.234 37.3999 216.456 37.6359 217.265 38.4452C218.074 39.2545 218.311 40.4712 217.869 41.525L199.467 85.1558C199.059 86.1169 198.154 86.7744 197.117 86.8615C197.039 86.8671 196.96 86.8699 196.879 86.8699Z" fill="white"/>
<path d="M40.4291 218.091C39.6985 218.091 38.9791 217.805 38.4424 217.268C37.6331 216.459 37.3943 215.242 37.841 214.188L56.2437 170.56C56.6484 169.599 57.5532 168.942 58.5901 168.855C59.6298 168.734 60.633 169.259 61.195 170.136C64.3393 175.031 67.998 179.577 72.064 183.646C76.1273 187.71 80.6711 191.365 85.5773 194.515C86.454 195.08 86.9486 196.083 86.8587 197.123C86.7688 198.16 86.1112 199.065 85.153 199.472L41.5221 217.875C41.1681 218.021 40.8 218.091 40.4291 218.091Z" fill="white"/>
</svg>
